<svg xmlns="http://www.w3.org/2000/svg" width="200" height="200"><path fill="#E2131D" d="M110.552 124.547H24.436c-8.306 1.135-15.96-4.678-17.096-12.984a15.149 15.149 0 0 1-.009-4.047V91.078c-.533-8.161 5.65-15.21 13.813-15.744a14.86 14.86 0 0 1 2.478.045h86.857c-1.408-1.629-2.296-2.665-3.258-3.628-10.516-10.736-21.104-21.473-31.619-32.284-7.443-5.616-8.924-16.202-3.308-23.646a16.912 16.912 0 0 1 3.308-3.308c2.813-2.888 5.628-5.924 8.664-8.516 5.838-5.373 14.821-5.373 20.659 0a42.107 42.107 0 0 1 3.185 3.11 19447.537 19447.537 0 0 1 77.525 79.008c9.404 9.478 9.33 18.067 0 27.62l-78.119 79.6c-5.356 7.178-15.517 8.652-22.695 3.295a16.204 16.204 0 0 1-3.295-3.295c-2.443-2.518-4.961-4.961-7.404-7.404-6.646-6.064-7.116-16.369-1.052-23.014.334-.367.685-.717 1.052-1.051 10.811-11.182 21.77-22.215 32.728-33.469 1.184-.962 2.146-2.073 3.702-3.85z"/></svg>