<?xml version="1.0" encoding="utf-8"?>
<!-- Generator: Adobe Illustrator 16.0.3, SVG Export Plug-In . SVG Version: 6.00 Build 0)  -->
<!DOCTYPE svg PUBLIC "-//W3C//DTD SVG 1.1//EN" "http://www.w3.org/Graphics/SVG/1.1/DTD/svg11.dtd">
<svg version="1.1" id="Layer_1" xmlns="http://www.w3.org/2000/svg" xmlns:xlink="http://www.w3.org/1999/xlink" x="0px" y="0px"
	 width="200px" height="200px" viewBox="0 0 200 200" enable-background="new 0 0 200 200" xml:space="preserve">
<title>PLUS_Pijl</title>
<path fill="#E2131D" d="M110.552,124.547H24.436c-8.306,1.135-15.96-4.678-17.096-12.984c-0.184-1.342-0.187-2.703-0.009-4.047
	c0-5.479,0-10.958,0-16.438c-0.533-8.161,5.65-15.21,13.813-15.744c0.826-0.054,1.655-0.039,2.478,0.045h86.857
	c-1.408-1.629-2.296-2.665-3.258-3.628C96.705,61.015,86.117,50.278,75.602,39.467c-7.443-5.616-8.924-16.202-3.308-23.646
	c0.944-1.25,2.057-2.364,3.308-3.308c2.813-2.888,5.628-5.924,8.664-8.516c5.838-5.373,14.821-5.373,20.659,0
	c1.116,0.98,2.179,2.018,3.185,3.11c25.916,26.262,51.758,52.598,77.525,79.008c9.404,9.478,9.33,18.067,0,27.62l-78.119,79.6
	c-5.356,7.178-15.517,8.652-22.695,3.295c-1.251-0.934-2.361-2.043-3.295-3.295c-2.443-2.518-4.961-4.961-7.404-7.404
	c-6.646-6.064-7.116-16.369-1.052-23.014c0.334-0.367,0.685-0.717,1.052-1.051c10.811-11.182,21.77-22.215,32.728-33.469
	C108.034,127.435,108.996,126.324,110.552,124.547z"/>
</svg>
